# xmcd CD database file
#
# Track frame offsets:
#	150
#	19800
#	40432
#	62715
#
# Disc length: 1095 seconds
#
# Revision: 0
# Processed by: cddbd v1.5.1PL0 Copyright (c) Steve Scherf et al.
# Submitted via: CDex 1.51
#
DISCID=30044504
DTITLE=Chiao's"B" - 青い翼
DYEAR=2003
DGENRE=JPop
TTITLE0=青い翼
TTITLE1=おじさんケムシ
TTITLE2=アワ
TTITLE3=青い翼(instrumental)
EXTD=YEAR: 2003
EXTT0=
EXTT1=
EXTT2=
EXTT3=
PLAYORDER=
